<svg id="flat" height="512" viewBox="0 0 512 512" width="512" xmlns="http://www.w3.org/2000/svg"><path d="m302.842 159.447 57.158-71.447 24 16-58.889 73.611z" fill="#ef5e3b"/><path d="m287.074 91.158 40.926-51.158 24 16-42.843 53.554z" fill="#ef5e3b"/><path d="m224 216v-48.759a86.28914 86.28914 0 0 1 20-55.241 86.28914 86.28914 0 0 0 20-55.241v-32.759h-40v11.15562a53.8962 53.8962 0 0 1 -24 44.84438l-40-32-24 24 28.28427 28.28427a40 40 0 0 1 11.71573 28.28427v87.43146z" fill="#639aff"/><path d="m176 160-7.87683-5.25122a64 64 0 0 0 -35.50081-10.74878h-36.62236v32h26.66667a64 64 0 0 1 38.4 12.8l14.93333 11.2z" fill="#4976f2"/><path d="m328 124a40 40 0 0 0 -16-32 40 40 0 0 1 -16-32v-36h-32v32.759a86.28914 86.28914 0 0 1 -20 55.241 86.28914 86.28914 0 0 0 -20 55.241v48.759h104z" fill="#f5714f"/><path d="m344 280h72v32h-72z" fill="#d14521"/><path d="m288 200h-62.53332a107.37748 107.37748 0 0 0 -89.34346 47.81517l-.00005.00007a96 96 0 0 0 -16.12317 53.25122v36.67221a96 96 0 0 0 17.35374 55.05238l29.09182 41.55975a32 32 0 0 0 26.21544 13.6492h23.339z" fill="#ef5e3b"/><path d="m216 448 72-248h48v64l52.8 70.4a96 96 0 0 1 19.2 57.6v64a32 32 0 0 1 -32 32h-100.91872a63.63246 63.63246 0 0 1 -59.08128-40z" fill="#ffb089"/><path d="m272 200v-8a47.99993 47.99993 0 0 1 9.6-28.8 48 48 0 0 1 38.4-19.2h88v32h-48a24 24 0 0 0 -24 24z" fill="#639aff"/><path d="m336 216h56v32h-56z" fill="#d14521"/></svg>