<svg height="512" viewBox="0 0 64 64" width="512" xmlns="http://www.w3.org/2000/svg"><g id="blood_test-healthcare-blood-medical-hospital" data-name="blood test-healthcare-blood-medical-hospital"><path d="m22.79 25a3.993 3.993 0 0 1 2.22.67l.98.66a4.058 4.058 0 0 0 2.13.67h10.88a2 2 0 0 1 0-4 2 2 0 0 1 0-4 2 2 0 0 1 0-4h12a2 2 0 0 0 0-4h-18a5 5 0 0 1 -5 5 5 5 0 0 0 5-5l4.085-2.918a3 3 0 0 0 .353-4.582l-.5-.488-10.994 7.318a4 4 0 0 1 -2.217.67h-2.727v14z" fill="#ffbcab"/><path d="m32 10 4.085-2.918a3 3 0 0 0 .8-4.035l.058-.039.5.488a3 3 0 0 1 -.353 4.586l-2.69 1.918-1.4 1a5 5 0 0 1 -5 5l-1-1a5 5 0 0 0 5-5z" fill="#ff977c"/><path d="m27.12 26a4.058 4.058 0 0 1 -2.13-.67l-.98-.66a3.993 3.993 0 0 0 -2.22-.67h-.79v1h1.79a3.993 3.993 0 0 1 2.22.67l.98.66a4.058 4.058 0 0 0 2.13.67h10.88a1.994 1.994 0 0 1 -1.723-1" fill="#ffac96"/><path d="m51.82 11.18a1.992 1.992 0 0 1 -1.82 2.82h-12a2 2 0 0 0 -.82 3.82 1.992 1.992 0 0 1 1.82-2.82h12a2 2 0 0 0 .82-3.82z" fill="#ff9478"/><path d="m13 9v1 16 1h8v-2-14-2z" fill="#006df0"/><g fill="#ffac96"><path d="m37 17a2 2 0 0 0 2 2h4a2 2 0 0 0 0-4h-4a2 2 0 0 0 -2 2z"/><path d="m37 21a2 2 0 0 0 2 2h4a2 2 0 0 0 0-4h-4a2 2 0 0 0 -2 2z"/><path d="m37 25a2 2 0 0 0 2 2h4a2 2 0 0 0 0-4h-4a2 2 0 0 0 -2 2z"/></g><rect fill="#57a4ff" height="20" rx="4" width="24" x="19" y="41"/><path d="m39.708 41.071a3.976 3.976 0 0 1 1.292 2.929v12a4 4 0 0 1 -4 4h-16a4.036 4.036 0 0 1 -.708-.071 3.979 3.979 0 0 0 2.708 1.071h16a4 4 0 0 0 4-4v-12a3.994 3.994 0 0 0 -3.292-3.929z" fill="#2488ff"/><rect fill="#f1f2f2" height="12" rx="2" width="8" x="23" y="45"/><path d="m29 45h-1a2 2 0 0 1 2 2v4a6 6 0 0 1 -5.355 5.964 1.978 1.978 0 0 0 .355.036h4a2 2 0 0 0 2-2v-8a2 2 0 0 0 -2-2z" fill="#e6e7e8"/><path d="m47 47a2 2 0 0 0 -2-2h-2v12h2a2 2 0 0 0 2-2z" fill="#006df0"/><path d="m45 45h-1a2 2 0 0 1 2 2v8a2 2 0 0 1 -2 2h1a2 2 0 0 0 2-2v-8a2 2 0 0 0 -2-2z" fill="#005ece"/><path d="m47 49v4h6l-1-2 1-2z" fill="#d1d3d4"/><path d="m47 51v2h6l-1-2z" fill="#a7a9ac"/><circle cx="37" cy="55" fill="#ffcd00" r="2"/><circle cx="37" cy="47" fill="#ffcd00" r="2"/><path d="m50 22a2 2 0 0 0 4 0c0-1.105-2-4-2-4s-2 2.9-2 4z" fill="#d80027"/><path d="m52 18s-.214.31-.5.763a9.3 9.3 0 0 1 1.5 3.237 2 2 0 0 1 -1.5 1.929 1.966 1.966 0 0 0 .5.071 2 2 0 0 0 2-2c0-1.1-2-4-2-4z" fill="#bd0022"/><path d="m50 32a2 2 0 0 0 4 0c0-1.105-2-4-2-4s-2 2.9-2 4z" fill="#d80027"/><path d="m50 42a2 2 0 0 0 4 0c0-1.1-2-4-2-4s-2 2.9-2 4z" fill="#d80027"/><path d="m3 10h10v16h-10z" fill="#005ece"/><path d="m43.82 15.18a1.992 1.992 0 0 1 -1.82 2.82h-4a1.99 1.99 0 0 1 -.82-.18 2 2 0 0 0 1.82 1.18h4a2 2 0 0 0 .82-3.82z" fill="#ff9478"/><path d="m43.82 19.18a1.992 1.992 0 0 1 -1.82 2.82h-4a1.99 1.99 0 0 1 -.82-.18 2 2 0 0 0 1.82 1.18h4a2 2 0 0 0 .82-3.82z" fill="#ff9478"/><path d="m43.82 23.18a1.992 1.992 0 0 1 -1.82 2.82h-4a1.99 1.99 0 0 1 -.82-.18 2 2 0 0 0 1.82 1.18h4a2 2 0 0 0 .82-3.82z" fill="#ff9478"/><path d="m17 20a1 1 0 0 0 -1 1v2a1 1 0 0 0 2 0v-2a1 1 0 0 0 -1-1z" fill="#f1f2f2"/><path d="m52 28s-.214.31-.5.763a9.3 9.3 0 0 1 1.5 3.237 2 2 0 0 1 -1.5 1.929 1.966 1.966 0 0 0 .5.071 2 2 0 0 0 2-2c0-1.1-2-4-2-4z" fill="#bd0022"/><path d="m52 38s-.214.31-.5.763a9.3 9.3 0 0 1 1.5 3.237 2 2 0 0 1 -1.5 1.929 1.966 1.966 0 0 0 .5.071 2 2 0 0 0 2-2c0-1.1-2-4-2-4z" fill="#bd0022"/></g></svg>