<svg id="color" height="512" viewBox="0 0 24 24" width="512" xmlns="http://www.w3.org/2000/svg"><path d="m12 24c-4.962 0-9-4.067-9-9.065 0-6.108 8.122-14.365 8.468-14.713.281-.284.783-.284 1.064 0 .346.348 8.468 8.605 8.468 14.713 0 4.998-4.038 9.065-9 9.065z" fill="#eceff1"/><path d="m12.25 20h-.5c-.965 0-1.75-.785-1.75-1.75v-1.25h-1.25c-.965 0-1.75-.785-1.75-1.75v-.5c0-.965.785-1.75 1.75-1.75h1.25v-1.25c0-.965.785-1.75 1.75-1.75h.5c.965 0 1.75.785 1.75 1.75v1.25h1.25c.965 0 1.75.785 1.75 1.75v.5c0 .965-.785 1.75-1.75 1.75h-1.25v1.25c0 .965-.785 1.75-1.75 1.75z" fill="#f44336"/><path d="m12 .009c-.196 0-.392.071-.532.213-.346.348-8.468 8.605-8.468 14.713 0 4.998 4.038 9.065 9 9.065v-4h-.25c-.965 0-1.75-.785-1.75-1.75v-1.25h-1.25c-.965 0-1.75-.785-1.75-1.75v-.5c0-.965.785-1.75 1.75-1.75h1.25v-1.25c0-.965.785-1.75 1.75-1.75h.25z" fill="#cdd0d2"/><path d="m12 10h-.25c-.965 0-1.75.785-1.75 1.75v1.25h-1.25c-.965 0-1.75.785-1.75 1.75v.5c0 .965.785 1.75 1.75 1.75h1.25v1.25c0 .965.785 1.75 1.75 1.75h.25z" fill="#d43a2f"/></svg>