<svg id="Capa_1" enable-background="new 0 0 512 512" height="512" viewBox="0 0 512 512" width="512" xmlns="http://www.w3.org/2000/svg"><g><path d="m5.529 454.555c-.488-.448-.971-.901-1.447-1.363.455.483.932.944 1.447 1.363z" fill="#f9ebd7"/><g><g><path d="m193.791 483.025c-8.284 0-15-6.716-15-15v-22.154c0-8.284 6.716-15 15-15s15 6.716 15 15v22.154c0 8.284-6.716 15-15 15z" fill="#e2dff4"/></g><g><path d="m133.791 483.025c-8.284 0-15-6.716-15-15v-22.154c0-8.284 6.716-15 15-15s15 6.716 15 15v22.154c0 8.284-6.716 15-15 15z" fill="#e2dff4"/></g><g><path d="m318.561 483.025c-8.284 0-15-6.716-15-15v-22.154c0-8.284 6.716-15 15-15s15 6.716 15 15v22.154c0 8.284-6.716 15-15 15z" fill="#bebcdd"/></g><path d="m218.198 28.975c-21.059 0-30.345 11.603-34.427 21.336-3.847 9.173-4.497 20.102-4.584 31.54l-15.845 31.704c-3.704 7.411-.699 16.42 6.711 20.124 7.412 3.705 16.42.699 20.124-6.711l17.416-34.846c1.041-2.083 1.583-4.378 1.583-6.706 0-9.162.175-18.523 2.262-23.5.715-1.706 1.232-2.939 6.762-2.939h37.8l10-15.727-10-14.273h-37.802z" fill="#e2dff4"/><path d="m300.563 61.914c2.088 4.978 2.263 14.339 2.263 23.5 0 2.328.542 4.624 1.583 6.706l17.416 34.846c2.627 5.257 7.926 8.297 13.429 8.297 2.254 0 4.541-.51 6.694-1.586 7.41-3.704 10.415-12.713 6.711-20.124l-15.845-31.704c-.089-11.438-.738-22.366-4.585-31.54-4.082-9.733-13.369-21.336-34.427-21.336h-37.802v30h37.803c5.528.002 6.046 1.235 6.76 2.941z" fill="#bebcdd"/><g><path d="m378.561 483.025c-8.284 0-15-6.716-15-15v-22.154c0-8.284 6.716-15 15-15s15 6.716 15 15v22.154c0 8.284-6.716 15-15 15z" fill="#bebcdd"/></g><path d="m105 135.923-45-30h-45c-8.284 0-15 6.716-15 15v225.995c0 5.589 119.804 111.01 119.804 111.01h.196l10-188.562-10-143.443z" fill="#ff6c6c"/><path d="m276 281.925-20-176.002h-106l-30 20v332.005h136z" fill="#f9f9f9"/><path d="m497 105.923h-45l-30 20-15 10-15-10-10 156.006 10 175.999h.196l29.804-29.815 90-90.034v-217.156c0-8.284-6.716-15-15-15z" fill="#e63950"/><path d="m362 105.923h-106v352.005h136v-332.005z" fill="#e2dff4"/><path d="m225.667 175.929c-8.284 0-15 6.716-15 15v45.667h-45.667c-8.284 0-15 6.716-15 15v60.667c0 8.284 6.716 15 15 15h45.667v45.667c0 8.284 6.716 15 15 15h30.333l20-106-20-106h-30.333z" fill="#e63950"/><path d="m347 236.596h-45.667v-45.667c0-8.284-6.716-15-15-15h-30.333v212h30.333c8.284 0 15-6.716 15-15v-45.667h45.667c8.284 0 15-6.716 15-15v-60.667c0-8.283-6.716-14.999-15-14.999z" fill="#ae2538"/><path d="m75 197.947h60c8.284 0 15-6.716 15-15v-77.024h-90v77.024c0 8.284 6.716 15 15 15z" fill="#e63950"/><path d="m377 197.947h60c8.284 0 15-6.716 15-15v-77.024h-90v77.024c0 8.284 6.716 15 15 15z" fill="#ae2538"/><path d="m16.378 337.872c-.181 0-10.326.003-16.378.01v105.022c-.006 8.267 6.78 15.045 15.025 15.025h104.975c.039-6.377.06-15.921.06-16.375 0-57.171-46.511-103.682-103.682-103.682z" fill="#e63950"/><path d="m495.622 337.872c.181 0 10.326.003 16.378.01v105.022c.006 8.267-6.78 15.045-15.025 15.025h-104.975c-.039-6.377-.06-15.921-.06-16.375 0-57.171 46.511-103.682 103.682-103.682z" fill="#ae2538"/></g></g></svg>