<svg height="512" viewBox="0 0 59 58" width="512" xmlns="http://www.w3.org/2000/svg"><g id="037---Healthy-Heart" fill="none"><path id="Shape" d="m40 36.76c.0030822 2.798415-1.1403565 5.4759293-3.1639631 7.4088421-2.0236067 1.9329128-4.7507024 2.9524636-7.5460369 2.8211579-1.161-.063-.051.121-19.02-4.02-5.48212752-1.1998922-9.38701141-6.0581007-9.38-11.67v-9.55c-.00231173-1.3281792.43746298-2.6193578 1.25-3.67.80331559-1.0825983 1.22244685-2.4022811 1.191-3.75v-11.9c0 .89 1.461 1.62 3.261 1.62s3.259-.73 3.259-1.62v8.2l2.618-9.592c-.11.85 1.083 1.85 2.743 2.31 1.74.46 3.339.144 3.569-.726l-1.652 6.1c1.756 1.615 5.367 1.746 5.729.39-1.415 5.175-1.388 4.988-1.388 5.088 10.7803113 2.1153996 18.5493721 11.5741157 18.53 22.56z" fill="#ff5364"/><path id="Shape" d="m40 36.76c.0030822 2.798415-1.1403565 5.4759293-3.1639631 7.4088421-2.0236067 1.9329128-4.7507024 2.9524636-7.5460369 2.8211579-1.4105328-7.3998205 2.5340207-14.7807591 9.47-17.72.8249119 2.410859 1.2439395 4.9419213 1.24 7.49z" fill="#df4d60"/><circle id="Oval" cx="45" cy="44" fill="#35495e" r="14"/><path id="Shape" d="m9.851 2.43c0 .891-1.458 1.62-3.259 1.62s-3.261-.729-3.261-1.62 1.462-1.621 3.263-1.621 3.257.729 3.257 1.621z" fill="#59474e"/><path id="Shape" d="m18.781 2.622c-.228.867-1.833 1.188-3.569.726-1.662-.454-2.849-1.459-2.743-2.31.311-1.244 2.362-1.154 3.6-.82 1.736.461 2.949 1.545 2.712 2.404z" fill="#59474e"/><path id="Shape" d="m17 20v3.37c.0070298 4.9801187-2.4874069 9.6308907-6.64 12.38l-5.98 4c-.47258956-.469754-.90105434-.9819034-1.28-1.53.075-.1 0-.02 6.15-4.13 3.5948878-2.3813447 5.7546669-6.407924 5.75-10.72v-3.37c0-.5522847.4477153-1 1-1s1 .4477153 1 1z" fill="#df4d60"/><path id="Shape" d="m45 39.667c-.8354945-1.62606-2.504902-2.6535951-4.333-2.667-2.667 0-4.667 1.667-4.667 5s2 4.667 3.333 6 5.667 5 5.667 5 4.333-3.667 5.667-5 3.333-2.667 3.333-6-2-5-4.667-5c-1.828098.0134049-3.4975055 1.04094-4.333 2.667z" fill="#ff5364"/><path id="Shape" d="m45 48c-.543 0-.565-.151-2.707-2.293-.3789722-.3923789-.3735524-1.0160848.0121814-1.4018186s1.0094397-.3911536 1.4018186-.0121814l1.21 1.21 3.3-4.128c.345178-.4313344.9746656-.501178 1.406-.156s.501178.9746656.156 1.406l-4 5c-.189423.23659-.475923.3745073-.779.375z" fill="#ecf0f1"/><path id="Shape" d="m17.252 17.9c-.5522847 0-1-.4477153-1-1 0-5.595-.159-4.351.965-8.5.0815046-.3577001.3523338-.64205167.7056417-.7408742.3533079-.09882254.7323628.00375221.9876225.26725712.2552598.2635049.3457364.64562819.2357358.99561708-1.063 3.929-.894 2.638-.894 7.979-.0005519.5518942-.4481055.9990003-1 .999z" fill="#df4d60"/><path id="Shape" d="m11.85 3.3c0 11.435.27 13.349-1.05 17.31-.1004945.3521353-.385425.6211779-.7427411.7013255-.35731601.0801476-.72986217-.0414201-.97113267-.3168959-.24127051-.2754758-.3126723-.6607954-.18612623-1.0044296 1.125-3.392.951-5.616.951-9.36z" fill="#df4d60"/><path id="Shape" d="m22.858 9.109c-.365 1.39-4.031 1.188-5.729-.39l.578-2.14c2.238-.522 5.537 1.126 5.151 2.53z" fill="#59474e"/></g></svg>