<svg id="Capa_1" enable-background="new 0 0 512 512" height="512" viewBox="0 0 512 512" width="512" xmlns="http://www.w3.org/2000/svg"><g><g><g><g><circle cx="256" cy="256" fill="#54469c" r="256"/></g><g><circle cx="256" cy="256" fill="#d8ecfe" r="225.61"/></g><g fill="#fd6930"><path d="m288.912 238.408v-37.957c-2.276 1.089-4.813 1.718-7.5 1.718s-5.224-.628-7.5-1.718v37.957c2.42-.517 4.928-.794 7.5-.794s5.08.277 7.5.794z"/><path d="m352.761 273.518c0-2.687.628-5.224 1.718-7.5h-37.956c.517 2.42.794 4.928.794 7.5s-.277 5.08-.794 7.5h37.956c-1.09-2.276-1.718-4.813-1.718-7.5z"/><path d="m311.529 254.008 21.074-21.074c-2.51-.692-4.814-2.011-6.705-3.902-1.928-1.928-3.22-4.251-3.896-6.71l-21.079 21.079c4.235 2.753 7.853 6.372 10.606 10.607z"/><path d="m273.912 308.628v37.957c2.276-1.089 4.813-1.718 7.5-1.718s5.224.628 7.5 1.718v-37.957c-2.42.517-4.928.794-7.5.794s-5.08-.277-7.5-.794z"/><path d="m246.302 281.018c-.517-2.42-.794-4.928-.794-7.5s.277-5.08.794-7.5h-37.956c1.089 2.276 1.718 4.813 1.718 7.5s-.628 5.224-1.718 7.5z"/><path d="m236.926 229.032c-1.891 1.891-4.195 3.21-6.705 3.902l21.074 21.074c2.753-4.235 6.372-7.854 10.607-10.607l-21.079-21.079c-.677 2.458-1.969 4.781-3.897 6.71z"/><path d="m325.898 318.005c1.891-1.891 4.195-3.21 6.705-3.903l-21.074-21.074c-2.753 4.235-6.372 7.854-10.607 10.607l21.08 21.079c.677-2.458 1.968-4.781 3.896-6.709z"/><path d="m251.295 293.028-21.074 21.074c2.51.692 4.814 2.012 6.705 3.903 1.928 1.928 3.22 4.251 3.896 6.71l21.08-21.079c-4.235-2.754-7.854-6.372-10.607-10.608z"/></g><g><path d="m282.731 448.649c-11.253.44-22.468.11-33.571-.966-10.383-.999-17.477-9.315-15.92-17.564 1.556-8.271 9.987-13.707 18.867-12.863 9.735.943 19.567 1.232 29.433.847 8.997-.333 17.269 5.55 18.357 13.896 1.093 8.325-6.643 16.247-17.166 16.65z" fill="#1e9efd"/></g><g><path d="m84.99 256c0-115.161 86.736-210.434 198.31-223.954-8.952-1.085-18.06-1.656-27.3-1.656-124.402 0-225.61 101.209-225.61 225.61s101.208 225.61 225.61 225.61c9.24 0 18.348-.571 27.3-1.656-111.575-13.52-198.31-108.793-198.31-223.954z" fill="#b3dafe"/></g><g><path d="m256 489.11c-128.537 0-233.109-104.573-233.109-233.11s104.572-233.11 233.109-233.11 233.109 104.573 233.109 233.11-104.572 233.11-233.109 233.11zm0-451.22c-120.266 0-218.109 97.844-218.109 218.11s97.843 218.11 218.109 218.11 218.109-97.844 218.109-218.11-97.843-218.11-218.109-218.11z" fill="#8379c1"/></g></g><g><g><g><g><circle cx="192.611" cy="273.518" fill="#fe653b" r="18.452"/></g><g><circle cx="370.213" cy="273.518" fill="#fe653b" r="18.452"/></g></g><g><g><g><circle cx="226.149" cy="218.256" fill="#fe653b" r="16.24"/></g><path d="m227.231 229.739c-6.342-6.342-6.342-16.624 0-22.966 1.538-1.538 3.311-2.696 5.201-3.488-5.9-2.473-12.962-1.316-17.766 3.488-6.342 6.342-6.342 16.624 0 22.966 4.804 4.803 11.865 5.961 17.766 3.488-1.89-.793-3.662-1.95-5.201-3.488z" fill="#ef4424"/><g><circle cx="336.675" cy="328.781" fill="#fe653b" r="16.24"/></g></g><g><g><circle cx="336.675" cy="218.256" fill="#fe653b" r="16.24"/></g><path d="m337.756 229.739c-6.342-6.342-6.342-16.624 0-22.966 1.538-1.538 3.311-2.696 5.201-3.488-5.9-2.473-12.962-1.316-17.766 3.488-6.342 6.342-6.342 16.624 0 22.966 4.804 4.803 11.865 5.961 17.766 3.488-1.889-.793-3.662-1.95-5.201-3.488z" fill="#ef4424"/><g><circle cx="226.149" cy="328.781" fill="#fe653b" r="16.24"/></g></g></g><g><circle cx="281.412" cy="273.518" fill="#fe653b" r="36.904"/></g><g><path d="m270.423 273.518c0-15.821 9.958-29.312 23.947-34.559-4.032-1.513-8.397-2.345-12.957-2.345-20.382 0-36.904 16.523-36.904 36.904 0 20.382 16.523 36.904 36.904 36.904 4.56 0 8.925-.833 12.957-2.345-13.989-5.247-23.947-18.738-23.947-34.559z" fill="#ef4424"/></g><g><g><circle cx="281.412" cy="184.717" fill="#fe653b" r="18.452"/></g><path d="m279.096 184.717c0-7.294 4.242-13.58 10.384-16.576-2.44-1.19-5.171-1.877-8.068-1.877-10.191 0-18.452 8.261-18.452 18.452s8.261 18.452 18.452 18.452c2.897 0 5.628-.687 8.068-1.877-6.142-2.994-10.384-9.281-10.384-16.574z" fill="#ef4424"/><g><circle cx="281.412" cy="362.319" fill="#fe653b" r="18.452"/></g></g></g><g><circle cx="357.435" cy="402.489" fill="#1ee6a6" r="21.717"/></g><path d="m352.566 402.489c0-9.007 5.483-16.732 13.293-20.022-2.59-1.091-5.437-1.695-8.424-1.695-11.994 0-21.717 9.723-21.717 21.717s9.723 21.717 21.717 21.717c2.987 0 5.834-.604 8.424-1.695-7.81-3.29-13.293-11.016-13.293-20.022z" fill="#0ed290"/><g><circle cx="105.504" cy="311.626" fill="#1ee6a6" r="23.397"/></g><path d="m99 311.626c0-9.942 6.205-18.43 14.951-21.819-2.621-1.015-5.467-1.578-8.446-1.578-12.922 0-23.397 10.475-23.397 23.397s10.475 23.397 23.397 23.397c2.979 0 5.825-.563 8.446-1.578-8.746-3.388-14.951-11.877-14.951-21.819z" fill="#0ed290"/><g><circle cx="415.487" cy="217.304" fill="#fff" r="19.029"/></g><path d="m413 217.304c0-7.541 4.397-14.037 10.758-17.117-2.504-1.212-5.302-1.912-8.271-1.912-10.509 0-19.029 8.52-19.029 19.029s8.519 19.029 19.029 19.029c2.969 0 5.767-.699 8.271-1.912-6.361-3.08-10.758-9.576-10.758-17.117z" fill="#fff3de"/><g><g><path d="m162.275 114.881 4.488-4.488c2.123-2.123 4.578-3.797 7.248-4.991l-11.214-11.214c-2.93-2.929-7.678-2.929-10.607 0s-2.929 7.678 0 10.606z" fill="#1e9efd"/><path d="m217.435 148.827-11.214-11.214c-1.193 2.67-2.868 5.125-4.99 7.248l-4.488 4.488 10.085 10.085c1.465 1.464 3.385 2.197 5.304 2.197s3.839-.732 5.304-2.197c2.927-2.93 2.927-7.679-.001-10.607z" fill="#0182fc"/></g><g><path d="m145.15 132.006 10.607-10.607-10.085-10.084c-2.93-2.929-7.678-2.929-10.607 0s-2.929 7.678 0 10.606z" fill="#1e9efd"/><path d="m190.224 155.866-10.607 10.607 10.085 10.085c1.465 1.464 3.385 2.197 5.304 2.197s3.839-.732 5.304-2.197c2.929-2.929 2.929-7.678 0-10.606z" fill="#0182fc"/></g><g><path d="m138.221 138.935.411-.411-10.084-10.084c-2.93-2.929-7.678-2.929-10.607 0s-2.929 7.678 0 10.606l13.457 13.457c.749-4.968 3.005-9.75 6.823-13.568z" fill="#1e9efd"/><path d="m173.099 172.992-.411.411c-3.711 3.711-8.43 6.071-13.558 6.835l13.446 13.446c1.465 1.464 3.385 2.197 5.304 2.197s3.839-.732 5.304-2.197c2.929-2.929 2.929-7.678 0-10.606z" fill="#0182fc"/></g><g><path d="m137.514 174.109c-9.867-9.867-9.867-26.014 0-35.881l28.542-28.542c9.867-9.867 26.014-9.867 35.881 0 9.867 9.867 9.867 26.014 0 35.881l-28.542 28.542c-9.867 9.868-26.014 9.868-35.881 0z" fill="#1e9efd"/></g><path d="m157.538 177.805c-9.867-9.867-9.867-26.014 0-35.881l37.218-37.218c-9.398-4.387-20.969-2.751-28.7 4.98l-28.542 28.542c-9.867 9.867-9.867 26.014 0 35.881 6.399 6.399 15.429 8.616 23.681 6.707-1.288-.876-2.517-1.871-3.657-3.011z" fill="#0182fc"/></g><g><path d="m84.222 205.394c-1.919 0-3.839-.732-5.304-2.197l-12.109-12.109c-2.929-2.929-2.929-7.678 0-10.606 2.93-2.929 7.678-2.929 10.607 0l12.109 12.109c2.929 2.929 2.929 7.678 0 10.606-1.464 1.465-3.384 2.197-5.303 2.197z" fill="#fff"/></g><g><path d="m439.888 302.647c-1.919 0-3.839-.732-5.304-2.197l-12.109-12.109c-2.929-2.929-2.929-7.678 0-10.606 2.93-2.929 7.678-2.929 10.607 0l12.109 12.109c2.929 2.929 2.929 7.678 0 10.606-1.464 1.465-3.384 2.197-5.303 2.197z" fill="#fff"/></g><g><path d="m222.701 82.771c-1.919 0-3.839-.732-5.304-2.197-2.929-2.929-2.929-7.678 0-10.606l12.109-12.109c2.93-2.929 7.678-2.929 10.607 0s2.929 7.678 0 10.606l-12.109 12.109c-1.464 1.465-3.384 2.197-5.303 2.197z" fill="#fff"/></g><g><path d="m395.881 343.59c-1.919 0-3.839-.732-5.304-2.197-2.929-2.929-2.929-7.678 0-10.606l12.109-12.109c2.93-2.929 7.678-2.929 10.607 0s2.929 7.678 0 10.606l-12.109 12.109c-1.464 1.464-3.384 2.197-5.303 2.197z" fill="#fff"/></g><g><path d="m279.604 114.956h-17.125c-4.143 0-7.5-3.358-7.5-7.5s3.357-7.5 7.5-7.5h17.125c4.143 0 7.5 3.358 7.5 7.5s-3.358 7.5-7.5 7.5z" fill="#fff"/></g><g><path d="m93.525 252.194c-1.919 0-3.839-.732-5.304-2.197-2.929-2.929-2.929-7.678 0-10.606l12.109-12.109c2.93-2.929 7.678-2.929 10.607 0s2.929 7.678 0 10.606l-12.109 12.109c-1.464 1.464-3.384 2.197-5.303 2.197z" fill="#fff"/></g><g><g><path d="m150.011 415.438c-9.613-5.66-18.877-11.989-27.719-18.963-8.273-6.513-9.871-17.472-4.091-23.562 5.789-6.11 15.939-6.003 23.019-.442 7.753 6.115 15.874 11.663 24.302 16.626 7.677 4.54 11.301 13.894 7.694 21.499-3.592 7.587-14.221 10.14-23.205 4.842z" fill="#1e9efd"/></g><g><path d="m214.255 441.295c-10.762-2.717-21.33-6.153-31.632-10.286-9.636-3.856-14.114-13.83-10.302-21.31 3.817-7.501 13.44-10.35 21.683-7.062 9.032 3.623 18.298 6.635 27.733 9.018 8.6 2.188 14.709 10.152 13.383 18.464-1.317 8.293-10.804 13.724-20.865 11.176z" fill="#0182fc"/></g></g><path d="m411.608 145.193c-6.281-9.152-13.17-17.872-20.619-26.101-5.241-5.799-12.72-7.648-18.527-5.573 1.733-5.893-.509-13.234-6.573-18.175-8.643-7.053-17.793-13.546-27.401-19.421-8.98-5.5-19.811-3.197-23.518 4.336-3.723 7.548-.101 17.032 7.57 21.743 8.424 5.15 16.445 10.844 24.023 17.027 5.183 4.214 12.108 5.356 17.73 3.137-1.891 5.713-.398 12.528 4.033 17.441 6.531 7.215 12.57 14.86 18.078 22.883 5.036 7.308 14.624 10.273 21.96 6.148 7.319-4.11 9.124-14.893 3.244-23.445z" fill="#fbd74c"/><path d="m394.908 153.978c-5.507-8.023-11.547-15.669-18.078-22.883-2.954-3.275-4.602-7.396-4.813-11.472-.142-2.761-2.363-4.87-5.128-4.86-4.113.016-8.357-1.429-11.823-4.246-7.578-6.183-15.599-11.876-24.023-17.027-7.002-4.301-10.61-12.573-8.359-19.724-3.374 1.135-6.169 3.351-7.715 6.494-3.723 7.548-.101 17.032 7.57 21.743 8.424 5.15 16.445 10.844 24.023 17.027 5.183 4.214 12.108 5.356 17.73 3.137-1.891 5.713-.398 12.528 4.033 17.441 6.531 7.215 12.57 14.86 18.078 22.883 5.036 7.308 14.624 10.273 21.96 6.148 2.872-1.613 4.88-4.26 5.922-7.389-6.877 2.259-14.913-.795-19.377-7.272z" fill="#fac600"/></g></g><g fill="#ef4424"><path d="m227.231 340.27c-6.342-6.342-6.342-16.624 0-22.966 1.538-1.538 3.311-2.696 5.201-3.488-5.9-2.473-12.962-1.316-17.766 3.488-6.342 6.342-6.342 16.624 0 22.966 4.804 4.803 11.865 5.961 17.766 3.488-1.89-.793-3.662-1.95-5.201-3.488z"/><path d="m337.756 340.27c-6.342-6.342-6.342-16.624 0-22.966 1.538-1.538 3.311-2.696 5.201-3.488-5.9-2.473-12.962-1.316-17.766 3.488-6.342 6.342-6.342 16.624 0 22.966 4.804 4.803 11.865 5.961 17.766 3.488-1.889-.793-3.662-1.95-5.201-3.488z"/><path d="m279.096 362.319c0-7.294 4.242-13.58 10.384-16.576-2.44-1.19-5.171-1.877-8.068-1.877-10.191 0-18.452 8.261-18.452 18.452s8.261 18.452 18.452 18.452c2.897 0 5.628-.687 8.068-1.877-6.142-2.994-10.384-9.28-10.384-16.574z"/><path d="m190.294 273.518c0-7.294 4.242-13.58 10.384-16.576-2.44-1.19-5.171-1.877-8.068-1.877-10.191 0-18.452 8.261-18.452 18.452s8.261 18.452 18.452 18.452c2.897 0 5.628-.687 8.068-1.877-6.141-2.994-10.384-9.28-10.384-16.574z"/><path d="m367.897 273.518c0-7.294 4.242-13.58 10.384-16.576-2.44-1.19-5.171-1.877-8.068-1.877-10.191 0-18.452 8.261-18.452 18.452s8.261 18.452 18.452 18.452c2.897 0 5.628-.687 8.068-1.877-6.142-2.994-10.384-9.28-10.384-16.574z"/></g></g></svg>