<svg id="Capa_1" enable-background="new 0 0 512 512" height="512" viewBox="0 0 512 512" width="512" xmlns="http://www.w3.org/2000/svg"><g><path d="m257.03.899c-5.161 0-9.537-.62-16.396-.417-125.971 7.925-225.696 112.611-225.696 240.58v240.032c0 17.07 13.835 30.905 30.905 30.905h83.96l126.197-19.261 126.197 19.262h55.115c17.07 0 30.905-13.835 30.905-30.905v-240.033c0-133.13-100.793-234.622-211.187-240.163zm-3.779 391.682c-79.087 0-158.267-72.432-158.267-151.519 0-39.538 23.333-85.721 49.242-111.63 25.908-25.909 72.236-45.827 111.774-45.827s82.207 19.918 108.117 45.827c25.909 25.909 48.819 72.092 48.819 111.63s-22.91 86.87-48.819 112.779c-25.91 25.909-71.328 38.74-110.866 38.74z" fill="#bcf1f8"/><path d="m497.062 241.062v240.032c0 17.07-13.835 30.905-30.905 30.905h-30.905c17.07 0 30.905-13.835 30.905-30.905v-240.032c0-127.928-99.66-232.594-225.579-240.578 5.1-.319 10.24-.484 15.422-.484 133.13 0 241.062 107.932 241.062 241.062z" fill="#8ef0f0"/><path d="m379.107 117.956c-31.503-31.503-75.028-50.994-123.107-50.994s-91.604 19.491-123.107 50.994-50.994 75.028-50.994 123.107c0 96.157 77.944 174.101 174.101 174.101 48.079 0 91.604-19.491 123.107-50.994s50.994-75.028 50.994-123.107-19.491-91.604-50.994-123.107zm-21.85 224.363c-25.909 25.909-61.718 41.939-101.257 41.939-79.087 0-143.195-64.108-143.195-143.195 0-39.538 16.03-75.347 41.939-101.257 25.909-25.909 61.718-41.939 101.256-41.939s75.347 16.03 101.257 41.939c25.909 25.909 41.939 61.718 41.939 101.257s-16.03 75.347-41.939 101.256z" fill="#00ddf9"/><path d="m84.475 442.463c12.801 0 23.179-10.378 23.179-23.179 0-12.801-10.378-23.179-23.179-23.179-12.801 0-23.179 10.378-23.179 23.179 0 12.801 10.377 23.179 23.179 23.179z" fill="#ff8d95"/><path d="m266.302 244.153h-49.449c-8.534 0-15.453 6.918-15.453 15.453 0 8.534 6.918 15.453 15.453 15.453l23.725 10.279 25.724-10.279c8.534 0 15.453-6.918 15.453-15.453 0-8.535-6.919-15.453-15.453-15.453z" fill="#cbb0f2"/><path d="m310.6 259.606c0 8.53-6.923 15.453-15.453 15.453l-11.66 8.625-19.245-8.625c8.53 0 15.453-6.923 15.453-15.453 0-4.265-1.731-8.128-4.533-10.92-2.792-2.802-6.655-4.533-10.92-4.533h30.905c4.265 0 8.128 1.731 10.92 4.533 2.802 2.791 4.533 6.655 4.533 10.92z" fill="#b696ef"/><path d="m427.525 442.463c-12.801 0-23.179-10.378-23.179-23.179 0-12.801 10.378-23.179 23.179-23.179 12.801 0 23.179 10.378 23.179 23.179 0 12.801-10.377 23.179-23.179 23.179z" fill="#ff8d95"/><path d="m335.613 354.943-21.89-67.716-138.592 18.737-21.933 113.32 96.431 71.879 78.267-71.879z" fill="#fcf1f2"/><path d="m333.802 480.455-189.577-14.813 8.973-46.358h174.698l29.449 20.856z" fill="#f4e5e0"/><path d="m344.432 438.723-16.535-19.439-21.933-113.32 21.634-11.414 9.271 11.414 21.933 113.32z" fill="#f4e5e0"/><path d="m367.775 465.642-17.674 14.813-13.232-14.813-8.973-46.358h30.906z" fill="#e6d6d1"/><path d="m310.085 305.964h-135.984c-5.69 0-10.302-4.612-10.302-10.302v-10.302c0-5.69 4.612-10.302 10.302-10.302h135.984c5.69 0 10.302 4.612 10.302 10.302v10.302c-.001 5.69-4.613 10.302-10.302 10.302z" fill="#e6d6d1"/><path d="m348.201 285.36v10.302c0 5.687-4.615 10.302-10.302 10.302h-30.905c5.687 0 10.302-4.615 10.302-10.302v-10.302c0-5.687-4.615-10.302-10.302-10.302h30.905c5.687 0 10.302 4.616 10.302 10.302z" fill="#d3c6c3"/><path d="m140.105 465.642h203.382c5.69 0 20.63 12.136 20.63 12.136l-12.825 34.222h-221.489v-36.056c0-5.69 4.612-10.302 10.302-10.302z" fill="#736572"/><path d="m382.197 475.944v36.056h-30.905v-36.056c0-5.687-4.615-10.302-10.302-10.302h30.905c5.687 0 10.302 4.615 10.302 10.302z" fill="#615260"/></g></svg>