<svg height="512pt" viewBox="0 0 512 512" width="512pt" xmlns="http://www.w3.org/2000/svg"><path d="m63.902344 393.308594v110.886718c0 3.867188 3.132812 7 6.996094 7h14.582031c3.863281 0 6.996093-3.132812 6.996093-7v-110.886718zm0 0" fill="#aa493f"/><path d="m419.523438 393.308594v110.886718c0 3.867188 3.132812 7 6.996093 7h14.582031c3.863282 0 6.996094-3.132812 6.996094-7v-110.886718zm0 0" fill="#aa493f"/><path d="m83.285156 504.195312v-110.886718h-19.382812v110.886718c0 3.867188 3.132812 7 6.996094 7h14.582031c.84375 0 1.652343-.160156 2.402343-.433593-2.679687-.980469-4.597656-3.546875-4.597656-6.566407zm0 0" fill="#993b36"/><path d="m438.90625 504.195312v-110.886718h-19.382812v110.886718c0 3.867188 3.132812 7 6.996093 7h14.582031c.84375 0 1.652344-.160156 2.402344-.433593-2.679687-.980469-4.597656-3.546875-4.597656-6.566407zm0 0" fill="#993b36"/><path d="m503.007812 0h-75.9375c-2.972656 0-5.363281.824219-7.09375 3.296875l-34.652343 49.484375c-2.445313 3.496094-1.597657 8.316406 1.898437 10.761719 1.347656.945312 2.894532 1.398437 4.425782 1.398437 2.433593 0 4.832031-1.148437 6.335937-3.296875l32.34375-46.191406h72.679687c4.265626 0 7.726563-3.460937 7.726563-7.726563 0-4.269531-3.457031-7.726562-7.726563-7.726562zm0 0" fill="#dde4f7"/><g fill="#fec13b"><path d="m276.195312 45.722656c-5.566406 12.726563-2.089843 27.628906 9.089844 35.453125 11.179688 7.828125 26.371094 6 36.425782-3.582031zm0 0"/><path d="m335.296875 87.105469c-5.566406 12.726562-2.089844 27.628906 9.089844 35.457031 11.175781 7.824219 26.371093 5.996094 36.425781-3.585938zm0 0"/><path d="m394.398438 128.488281c-5.566407 12.726563-2.089844 27.628907 9.089843 35.457031 11.175781 7.824219 26.371094 5.996094 36.425781-3.585937zm0 0"/></g><path d="m307.234375 81.175781c-7.320313-5.125-11.3125-13.285156-11.652344-21.878906l-19.386719-13.574219c-5.566406 12.726563-2.089843 27.628906 9.089844 35.453125 7.984375 5.589844 18.007813 6.230469 26.753906 2.664063-1.660156-.714844-3.273437-1.589844-4.804687-2.664063zm0 0" fill="#f9a332"/><path d="m366.335938 122.5625c-7.320313-5.125-11.3125-13.289062-11.652344-21.882812l-19.386719-13.574219c-5.566406 12.726562-2.089844 27.628906 9.089844 35.457031 7.984375 5.589844 18.007812 6.230469 26.753906 2.660156-1.660156-.714844-3.273437-1.589844-4.804687-2.660156zm0 0" fill="#f9a332"/><path d="m425.4375 163.945312c-7.320312-5.125-11.3125-13.289062-11.652344-21.882812l-19.386718-13.574219c-5.5625 12.726563-2.089844 27.628907 9.089843 35.457031 7.984375 5.589844 18.007813 6.230469 26.753907 2.660157-1.660157-.714844-3.273438-1.589844-4.804688-2.660157zm0 0" fill="#f9a332"/><path d="m497.90625 327.609375h-483.8125c-7.753906 0-14.09375 6.339844-14.09375 14.089844v14.09375c0 7.75 6.339844 14.09375 14.09375 14.09375h483.8125c7.75 0 14.09375-6.34375 14.09375-14.09375v-14.09375c0-7.75-6.339844-14.089844-14.09375-14.089844zm0 0" fill="#b9e1fb"/><path d="m36.058594 355.792969v-14.09375c0-7.75 6.339844-14.089844 14.09375-14.089844h-36.058594c-7.753906 0-14.09375 6.339844-14.09375 14.089844v14.09375c0 7.75 6.339844 14.09375 14.09375 14.09375h36.054688c-7.75 0-14.089844-6.34375-14.089844-14.09375zm0 0" fill="#9ad3f6"/><path d="m143.265625 313.519531v-14.09375c0-7.75-6.339844-14.089843-14.089844-14.089843h-115.082031c-7.753906 0-14.09375 6.339843-14.09375 14.089843v14.09375c0 7.75 6.339844 14.089844 14.09375 14.089844h115.082031c7.75 0 14.089844-6.339844 14.089844-14.089844zm0 0" fill="#9ad3f6"/><path d="m36.058594 313.519531v-14.09375c0-7.75 6.339844-14.089843 14.09375-14.089843h-36.058594c-7.753906 0-14.09375 6.339843-14.09375 14.089843v14.09375c0 7.75 6.339844 14.089844 14.09375 14.089844h36.054688c-7.75 0-14.089844-6.339844-14.089844-14.089844zm0 0" fill="#78cbf4"/><path d="m20.746094 369.886719v14.480469c0 7.75 6.339844 14.09375 14.09375 14.09375h442.320312c7.75 0 14.09375-6.34375 14.09375-14.09375v-14.480469zm0 0" fill="#b7594a"/><path d="m56.804688 384.367188v-14.480469h-36.058594v14.480469c0 7.75 6.339844 14.09375 14.09375 14.09375h36.058594c-7.753907 0-14.09375-6.34375-14.09375-14.09375zm0 0" fill="#aa493f"/><path d="m460.636719 131.785156c-.75-21.136718-10.363281-41.078125-27.996094-53.425781l-77.597656-54.332031c-17.636719-12.347656-39.660157-14.5625-59.777344-8.039063zm0 0" fill="#ccd7f2"/><path d="m338.367188 25.066406c-3.523438-2.464844-3.660157-6.976562-1.4375-9.835937-13.453126-4.070313-27.996094-3.675781-41.664063.757812l165.375 115.792969c-.308594-8.617188-2.113281-17.027344-5.308594-24.816406zm0 0" fill="#bccced"/><path d="m304.515625 179.503906c-3.496094-2.449218-4.347656-7.265625-1.898437-10.761718l16.4375-23.476563c2.449218-3.496094 7.265624-4.34375 10.761718-1.898437 3.496094 2.449218 4.34375 7.269531 1.894532 10.761718l-16.4375 23.476563c-2.445313 3.496093-7.261719 4.347656-10.757813 1.898437zm0 0" fill="#fcdfae"/><path d="m344.753906 197.878906c-4.1875-.832031-6.90625-4.898437-6.074218-9.085937l5.578124-28.109375c.832032-4.1875 4.894532-6.90625 9.082032-6.074219s6.90625 4.898437 6.074218 9.082031l-5.578124 28.109375c-.828126 4.183594-4.890626 6.90625-9.082032 6.078125zm0 0" fill="#fcdfae"/><path d="m273.488281 147.972656c-2.214843-3.648437-1.046875-8.398437 2.601563-10.613281l24.507812-14.855469c3.648438-2.210937 8.398438-1.046875 10.613282 2.605469 2.210937 3.648437 1.046874 8.398437-2.605469 10.613281l-24.503907 14.855469c-3.648437 2.207031-8.402343 1.046875-10.613281-2.605469zm0 0" fill="#fcdfae"/><path d="m205.386719 209.386719h-182.628907c-12.546874 0-22.757812-10.210938-22.757812-22.757813v-120.816406c0-12.550781 10.210938-22.757812 22.757812-22.757812h182.628907c12.550781 0 22.757812 10.207031 22.757812 22.757812v120.816406c0 12.546875-10.207031 22.757813-22.757812 22.757813zm0 0" fill="#dde4f7"/><path d="m36.058594 186.628906v-120.816406c0-12.550781 10.210937-22.757812 22.757812-22.757812h-36.058594c-12.546874-.003907-22.757812 10.207031-22.757812 22.757812v120.816406c0 12.546875 10.210938 22.757813 22.757812 22.757813h36.058594c-12.546875 0-22.757812-10.210938-22.757812-22.757813zm0 0" fill="#ccd7f2"/><path d="m197.070312 71.148438h-165.992187c-1.644531 0-2.980469 1.335937-2.980469 2.980468v104.179688c0 1.644531 1.335938 2.980468 2.980469 2.980468h165.992187c1.644532 0 2.980469-1.335937 2.980469-2.980468v-104.179688c0-1.644531-1.335937-2.980468-2.980469-2.980468zm0 0" fill="#63a1fc"/><path d="m64.15625 178.308594v-104.179688c0-1.644531 1.332031-2.980468 2.980469-2.980468h-36.058594c-1.644531 0-2.980469 1.335937-2.980469 2.980468v104.179688c0 1.644531 1.335938 2.980468 2.980469 2.980468h36.058594c-1.648438 0-2.980469-1.335937-2.980469-2.980468zm0 0" fill="#4188ff"/><path d="m84.828125 109.351562c-1.152344 1.296876-2.628906 1.101563-3.550781-.046874-6.96875-12.277344-25.832032-7.332032-25.832032 6.804687 0 19.242187 20.226563 30.679687 26.425782 33.726563.757812.375 1.644531.375 2.398437 0 6.203125-3.058594 26.433594-14.53125 26.433594-33.726563-.003906-14.074219-18.808594-19.144531-25.875-6.757813zm0 0" fill="#ff5155"/><path d="m83.90625 110.832031c0-.269531.019531-.527343.03125-.792969-.949219.453126-1.960938.132813-2.660156-.734374-6.96875-12.277344-25.832032-7.332032-25.832032 6.804687 0 19.242187 20.226563 30.679687 26.425782 33.726563.757812.375 1.644531.375 2.398437 0 3.203125-1.578126 10.132813-5.402344 16.097657-11.367188-7.746094-5.738281-16.460938-15.007812-16.460938-27.636719zm0 0" fill="#f24049"/><path d="m168.207031 106.738281h-30.53125c-4.269531 0-7.730469-3.457031-7.730469-7.726562s3.460938-7.726563 7.730469-7.726563h30.53125c4.265625 0 7.726563 3.457032 7.726563 7.726563s-3.460938 7.726562-7.726563 7.726562zm0 0" fill="#4188ff"/><path d="m168.207031 133.945312h-30.53125c-4.269531 0-7.730469-3.460937-7.730469-7.726562 0-4.269531 3.460938-7.726562 7.730469-7.726562h30.53125c4.265625 0 7.726563 3.457031 7.726563 7.726562 0 4.265625-3.460938 7.726562-7.726563 7.726562zm0 0" fill="#4188ff"/><path d="m168.207031 161.152344h-30.53125c-4.269531 0-7.730469-3.460938-7.730469-7.726563 0-4.269531 3.460938-7.726562 7.730469-7.726562h30.53125c4.265625 0 7.726563 3.457031 7.726563 7.726562 0 4.265625-3.460938 7.726563-7.726563 7.726563zm0 0" fill="#4188ff"/><path d="m465.492188 162.753906 6.152343-8.78125c4.445313-6.351562 2.886719-15.179687-3.460937-19.625l-177.210938-124.085937c-6.351562-4.445313-15.183594-2.890625-19.628906 3.460937l-6.148438 8.78125c-4.445312 6.347656-2.886718 15.179688 3.460938 19.625l177.210938 124.085938c6.351562 4.445312 15.183593 2.886718 19.625-3.460938zm0 0" fill="#dde4f7"/><path d="m303.644531 42.128906c-6.347656-4.445312-7.90625-13.277344-3.460937-19.625l2.722656-3.886718-11.933594-8.355469c-6.351562-4.445313-15.179687-2.890625-19.625 3.460937l-6.152344 8.78125c-4.441406 6.347656-2.886718 15.179688 3.460938 19.625l177.210938 124.085938c6.351562 4.445312 15.183593 2.886718 19.628906-3.460938l3.425781-4.894531zm0 0" fill="#ccd7f2"/><path d="m110.761719 243.519531c0 24.855469-20.152344 45.007813-45.007813 45.007813-24.855468 0-45.007812-20.152344-45.007812-45.007813 0-24.859375 20.152344-45.007812 45.007812-45.007812 24.855469 0 45.007813 20.148437 45.007813 45.007812zm0 0" fill="#ffcdbe"/><path d="m55.355469 243.519531c0-18.726562 11.4375-34.773437 27.703125-41.558593-5.328125-2.21875-11.171875-3.453126-17.304688-3.453126-24.855468 0-45.007812 20.152344-45.007812 45.007813 0 24.859375 20.152344 45.007813 45.007812 45.007813 6.132813 0 11.976563-1.230469 17.304688-3.453126-16.265625-6.777343-27.703125-22.828124-27.703125-41.550781zm0 0" fill="#f7c1b3"/><path d="m165.050781 281.640625c0-.3125.027344-.617187.054688-.917969l-30.582031-6.707031c-9.273438-2.257813-18.636719 3.425781-20.902344 12.707031-2.261719 9.277344 3.425781 18.636719 12.707031 20.898438l38.722656 8.691406c0-19.75 0-33.609375 0-34.671875zm0 0" fill="#ffcdbe"/><path d="m144.964844 290.484375c1.253906-5.140625 4.210937-9.421875 8.117187-12.398437l-18.558593-4.070313c-9.277344-2.257813-18.640626 3.425781-20.902344 12.707031-2.261719 9.277344 3.425781 18.636719 12.707031 20.898438l27.136719 6.09375c-7.054688-5.148438-10.695313-14.21875-8.5-23.230469zm0 0" fill="#f7c1b3"/><path d="m441.503906 293.015625h-54.28125v34.589844h54.28125c9.550782 0 17.296875-7.742188 17.296875-17.296875 0-9.550782-7.746093-17.292969-17.296875-17.292969zm0 0" fill="#ffcdbe"/><path d="m418.425781 293.015625h-31.203125v34.589844h31.203125c0-15.085938 0-27.324219 0-34.589844zm0 0" fill="#f7c1b3"/><path d="m380.328125 280.976562h-167.769531c-.796875 0-1.59375-.097656-2.367188-.285156l-35.882812-8.75c-6.285156-1.535156-12.347656 3.226563-12.347656 9.699219v187.695313c0 5.511718 4.46875 9.980468 9.984374 9.980468h208.382813c5.515625 0 9.984375-4.46875 9.984375-9.980468 0-2.085938 0-173.617188 0-178.375 0-5.515626-4.46875-9.984376-9.984375-9.984376zm0 0" fill="#63a1fc"/><path d="m198.152344 469.335938c0-3.058594 0-183.742188 0-187.695313 0-1.324219.265625-2.570313.722656-3.710937l-24.566406-5.988282c-6.285156-1.535156-12.347656 3.226563-12.347656 9.699219v187.695313c0 5.511718 4.46875 9.980468 9.984374 9.980468h36.195313c-5.515625 0-9.988281-4.46875-9.988281-9.980468zm0 0" fill="#4188ff"/></svg>