<svg id="Capa_1" enable-background="new 0 0 512 512" height="512" viewBox="0 0 512 512" width="512" xmlns="http://www.w3.org/2000/svg"><g><path d="m44.826 505.77v-207.336c0-16.091 13.044-29.135 29.135-29.135 2.917 0 5.763.906 8.143 2.593l10.472 7.421c6.344 4.496 15.13 3 19.629-3.341 4.388-6.184 12.885-7.784 19.221-3.619l6.041 3.97c2.882 1.894 6.359 2.665 9.771 2.167 86.601-12.652 147.345-92.012 136.944-178.912l-.143-1.199c-1.493-12.471-5.341-24.497-10.875-35.772-12.129-24.712-1.511-47.579 4.551-57.462 1.962-3.199 5.437-5.145 9.189-5.145h39.73c.213 0 .3.265.136.401-.289.238-.574.477-.853.716-22.021 18.912-9.016 55.176 19.978 56.565 60.613 2.904 110.386 48.918 118.031 109.116l1.442 11.352c12.104 95.31-37.448 187.837-123.488 230.586-37.825 18.794-82.583 17.217-118.991-4.193l-99.981-58.794c-16.94-9.961-38.351 1.926-38.852 21.571l-1.536 138.519c-.04 3.414-2.818 6.161-6.231 6.161h-25.233c-3.441 0-6.23-2.789-6.23-6.23z" fill="#dd636e"/><g><path d="m465.367 178.149-1.442-11.352c-6.968-54.869-48.937-97.947-102.21-107.345 39.702 17.074 68.938 54.132 74.65 99.113l1.442 11.352c12.104 95.31-37.448 187.836-123.487 230.586-24.304 12.075-51.467 15.727-77.441 11.125 33.481 14.399 71.896 13.555 105.002-2.894 86.039-42.748 135.59-135.275 123.486-230.585z" fill="#da4a54"/></g><path d="m342.196 253.294c16.977 10.896 35.002 7.938 57.456 6.212 4.158-.32 25.008-22.101 28.973-22.613 2.864-17.633 3.268-35.857.939-54.195l-1.443-11.354c-5.448-42.903-40.755-75.543-83.955-77.613-.091-.004-.182-.009-.274-.014-12.348-.64-22.693 9.14-22.445 21.502.466 23.28-2.953 58.672-22.895 95.979 4.218-.005 4.114 31.793 9.123 32.515 11.958 1.726 20.246.42 34.521 9.581z" fill="#f6f6f6"/><path d="m352.572 227.36c-20.255-12.999-39.732-16.178-54.019-16.161-4.886 9.14-10.749 18.393-17.806 27.613-14.626 19.109-44.994 36.88-73.7 50.4-25.713 12.111-27.404 48.032-2.904 62.439 20.011 11.768 37.04 21.781 37.04 21.781 13.652 8.028 29.239 12.27 45.075 12.27 13.653-.001 27.333-3.212 39.563-9.289 55.656-27.653 93.174-80.24 102.804-139.521-25.372 3.279-55.932 3.382-76.053-9.532z" fill="#ffd064"/><path d="m429.564 182.699-1.443-11.354c-5.448-42.903-40.755-75.543-83.955-77.613-.091-.004-.182-.009-.274-.014-2.834-.147-5.559.261-8.078 1.116 36.052 8.033 63.955 37.822 68.748 75.563l1.443 11.354c2.329 18.338 1.925 36.562-.939 54.195-.151.928-.329 1.849-.493 2.774 8.203-.137 16.365-.835 24.051-1.827 2.865-17.633 3.269-35.856.94-54.194z" fill="#dddaec"/><path d="m404.573 238.721c-10.336 58.142-47.527 109.527-102.311 136.746-9.768 4.854-20.463 7.873-31.33 8.895 5.044.883 10.171 1.341 15.326 1.341 13.653-.001 27.333-3.212 39.563-9.289 55.656-27.653 93.174-80.24 102.804-139.521-7.686.993-15.848 1.691-24.052 1.828z" fill="#e7a561"/><circle cx="357.32" cy="412.324" fill="#b3e59f" r="76.072"/><path d="m357.32 336.252c-4.396 0-8.698.394-12.89 1.109 35.871 6.126 63.182 37.345 63.182 74.962s-27.311 68.837-63.182 74.962c4.192.716 8.494 1.109 12.89 1.109 42.013 0 76.072-34.059 76.072-76.072s-34.058-76.07-76.072-76.07z" fill="#95d6a4"/><path d="m397.611 395.272h-18.801c-2.451 0-4.437-1.987-4.437-4.437v-18.801c0-2.451-1.987-4.437-4.437-4.437h-25.23c-2.451 0-4.437 1.987-4.437 4.437v18.801c0 2.451-1.987 4.437-4.437 4.437h-18.802c-2.451 0-4.437 1.987-4.437 4.437v25.23c0 2.451 1.987 4.437 4.437 4.437h18.801c2.451 0 4.437 1.987 4.437 4.437v18.801c0 2.451 1.987 4.437 4.437 4.437h25.23c2.451 0 4.437-1.987 4.437-4.437v-18.801c0-2.451 1.987-4.437 4.437-4.437h18.801c2.451 0 4.437-1.987 4.437-4.437v-25.23c.001-2.451-1.986-4.437-4.436-4.437z" fill="#f6f6f6"/></g></svg>